<svg id="svg" version="1.1" xmlns="http://www.w3.org/2000/svg" xmlns:xlink="http://www.w3.org/1999/xlink" width="400" height="400.48019207683075" viewBox="0, 0, 400,400.48019207683075"><g id="svgg"><path id="path0" d="M160.547 31.876 C 155.921 32.783,155.966 45.414,160.600 46.577 C 162.397 47.027,235.954 46.906,237.481 46.450 C 240.261 45.619,240.436 45.155,240.312 38.959 L 240.200 33.400 238.415 32.500 L 236.630 31.600 199.015 31.654 C 178.327 31.684,161.016 31.784,160.547 31.876 M160.384 51.385 C 159.826 51.688,159.106 52.446,158.785 53.069 C 158.464 53.691,158.047 54.312,157.858 54.450 C 157.272 54.877,157.312 76.103,157.900 76.300 C 158.175 76.391,158.400 76.707,158.400 77.001 C 158.400 78.215,159.827 79.946,161.187 80.383 C 162.209 80.711,172.920 80.803,199.910 80.718 L 237.220 80.600 238.710 79.020 L 240.200 77.441 240.200 66.020 C 240.200 53.219,239.995 52.234,237.120 51.232 C 235.083 50.522,161.702 50.668,160.384 51.385 M288.124 57.252 C 282.616 61.982,281.641 63.766,283.059 66.520 C 284.182 68.701,336.592 120.796,338.098 121.228 C 340.600 121.946,341.055 121.731,344.795 118.069 C 349.192 113.764,349.531 112.225,346.782 109.066 C 343.123 104.863,294.861 57.210,293.544 56.500 C 291.206 55.240,290.325 55.362,288.124 57.252 M107.000 57.984 C 105.223 59.006,56.726 107.065,53.397 111.104 C 51.083 113.911,51.401 115.011,55.795 119.405 C 61.833 125.444,57.783 128.190,89.727 96.403 C 123.055 63.239,120.642 66.656,114.823 60.866 C 110.333 56.398,109.984 56.270,107.000 57.984 M275.212 70.445 C 273.884 70.975,260.096 84.895,259.596 86.211 C 258.738 88.466,259.323 92.063,260.718 93.114 C 261.093 93.397,272.929 105.142,287.019 119.214 C 314.228 146.388,312.751 145.092,316.200 144.829 C 318.004 144.692,318.718 144.102,326.263 136.509 C 334.270 128.449,334.000 128.831,334.000 125.570 L 334.000 123.087 308.100 97.113 C 293.439 82.410,281.641 70.892,280.913 70.570 C 279.449 69.922,276.676 69.861,275.212 70.445 M119.929 71.764 C 118.728 72.390,68.196 122.685,67.103 124.341 C 64.892 127.694,65.861 129.552,74.323 138.170 C 82.151 146.144,84.809 147.522,88.524 145.534 C 90.047 144.719,140.227 94.260,140.928 92.839 C 142.586 89.479,141.599 87.745,133.253 79.356 C 125.099 71.160,123.181 70.067,119.929 71.764 M186.800 88.212 C 182.175 88.768,173.059 90.564,171.800 91.168 C 171.360 91.379,169.245 91.937,167.100 92.409 C 164.955 92.880,163.200 93.431,163.200 93.633 C 163.200 93.835,162.934 94.000,162.608 94.000 C 161.589 94.000,156.800 95.695,156.800 96.056 C 156.800 96.245,156.519 96.400,156.175 96.400 C 155.592 96.400,147.240 100.305,146.800 100.784 C 146.690 100.903,145.765 101.408,144.744 101.907 C 143.723 102.405,142.666 103.080,142.395 103.406 C 142.124 103.733,141.734 104.000,141.529 104.000 C 141.324 104.000,140.096 104.720,138.800 105.600 C 137.504 106.480,136.263 107.200,136.042 107.200 C 135.821 107.200,135.496 107.446,135.320 107.746 C 135.144 108.046,134.406 108.595,133.679 108.967 C 132.953 109.338,132.259 109.902,132.137 110.221 C 132.014 110.539,131.731 110.800,131.506 110.800 C 129.572 110.800,110.437 129.937,110.407 131.900 C 110.403 132.175,110.222 132.400,110.005 132.400 C 109.611 132.400,108.257 134.280,106.438 137.355 C 105.909 138.250,105.239 139.218,104.950 139.507 C 104.660 139.797,103.574 141.601,102.535 143.517 C 101.496 145.433,100.519 147.054,100.365 147.120 C 100.210 147.185,99.682 148.310,99.193 149.620 C 98.703 150.929,98.159 152.000,97.984 152.000 C 97.809 152.000,97.276 153.170,96.800 154.600 C 96.324 156.030,95.805 157.200,95.646 157.200 C 95.487 157.200,94.941 158.505,94.432 160.100 C 93.923 161.695,93.359 163.185,93.178 163.411 C 92.601 164.134,90.747 171.242,89.791 176.400 C 89.281 179.150,88.666 181.916,88.425 182.546 C 87.204 185.728,86.887 208.836,87.966 216.000 C 88.555 219.911,90.614 229.301,91.080 230.205 C 91.306 230.642,91.810 232.350,92.200 234.000 C 92.590 235.650,93.047 237.180,93.216 237.400 C 93.384 237.620,93.735 238.610,93.996 239.600 C 94.723 242.358,101.822 257.297,102.739 258.000 C 102.883 258.110,103.446 259.055,103.992 260.100 C 104.537 261.145,105.100 262.000,105.243 262.000 C 105.386 262.000,105.719 262.521,105.983 263.158 C 106.246 263.795,106.768 264.650,107.142 265.058 C 107.516 265.466,108.262 266.430,108.800 267.200 C 109.337 267.970,110.187 269.048,110.689 269.596 C 111.190 270.144,111.600 270.702,111.600 270.837 C 111.600 271.097,112.366 271.992,116.200 276.214 C 121.756 282.332,125.968 286.213,131.400 290.218 C 132.720 291.191,134.070 292.233,134.400 292.532 C 135.372 293.415,140.723 296.800,141.145 296.800 C 141.359 296.800,141.593 296.944,141.667 297.119 C 141.916 297.715,151.517 302.733,153.764 303.441 C 154.994 303.829,156.000 304.279,156.000 304.441 C 156.000 304.603,156.945 305.043,158.100 305.419 C 159.255 305.795,160.936 306.430,161.835 306.832 C 162.735 307.233,164.805 307.861,166.435 308.227 C 168.066 308.594,169.580 309.034,169.800 309.206 C 170.020 309.377,172.180 309.902,174.600 310.370 C 177.020 310.839,179.292 311.385,179.648 311.583 C 183.034 313.461,217.448 313.499,219.781 311.628 C 220.011 311.443,222.090 310.978,224.400 310.595 C 226.710 310.212,229.590 309.584,230.800 309.201 C 232.010 308.817,233.622 308.367,234.382 308.201 C 236.021 307.844,243.712 304.811,244.000 304.408 C 244.110 304.254,245.010 303.847,246.000 303.504 C 246.990 303.161,249.150 302.146,250.800 301.248 C 252.450 300.349,254.557 299.246,255.482 298.796 C 256.408 298.346,257.398 297.758,257.682 297.489 C 257.967 297.220,259.010 296.559,260.000 296.020 C 260.990 295.481,262.149 294.716,262.575 294.320 C 263.002 293.924,263.495 293.600,263.672 293.600 C 264.161 293.600,268.534 290.274,273.773 285.916 C 276.771 283.423,285.076 275.054,287.075 272.513 C 287.556 271.901,288.468 270.770,289.101 270.000 C 289.733 269.230,290.685 267.970,291.215 267.200 C 291.745 266.430,292.484 265.466,292.858 265.058 C 293.232 264.650,293.754 263.795,294.017 263.158 C 294.281 262.521,294.614 262.000,294.757 262.000 C 294.900 262.000,295.463 261.145,296.008 260.100 C 296.554 259.055,297.147 258.092,297.327 257.959 C 297.508 257.827,298.092 256.837,298.627 255.759 C 299.162 254.682,300.095 252.895,300.700 251.790 C 302.018 249.381,305.403 241.806,305.789 240.400 C 305.940 239.850,306.316 238.839,306.625 238.154 C 306.934 237.468,307.465 235.668,307.805 234.154 C 308.144 232.639,308.596 231.040,308.807 230.600 C 309.019 230.160,309.649 227.730,310.207 225.200 C 310.765 222.670,311.386 219.880,311.587 219.000 C 313.205 211.887,312.952 184.311,311.230 180.200 C 311.045 179.760,310.596 177.728,310.232 175.685 C 309.581 172.039,308.682 168.774,307.122 164.400 C 305.567 160.040,304.393 157.073,304.052 156.641 C 303.861 156.398,303.474 155.480,303.192 154.600 C 302.700 153.066,300.344 148.233,299.681 147.400 C 299.506 147.180,298.934 146.100,298.409 145.000 C 297.884 143.900,297.333 142.910,297.183 142.800 C 297.034 142.690,296.635 142.060,296.297 141.400 C 295.958 140.740,294.936 139.120,294.026 137.800 C 293.115 136.480,292.068 134.950,291.699 134.400 C 286.935 127.293,275.951 116.056,268.242 110.400 C 267.193 109.630,265.740 108.505,265.014 107.900 C 264.288 107.295,263.562 106.800,263.401 106.800 C 263.239 106.800,262.249 106.170,261.200 105.400 C 260.151 104.630,259.105 104.000,258.875 104.000 C 258.645 104.000,258.191 103.734,257.866 103.409 C 256.432 101.975,242.077 95.122,238.869 94.340 C 237.841 94.090,236.816 93.742,236.591 93.569 C 236.366 93.395,234.566 92.869,232.591 92.399 C 230.616 91.929,228.715 91.395,228.367 91.211 C 228.020 91.028,225.770 90.499,223.367 90.036 C 220.965 89.573,218.100 89.012,217.000 88.790 C 210.697 87.518,195.073 87.219,186.800 88.212 M212.002 100.988 C 277.664 108.712,318.032 177.934,292.487 239.000 C 264.969 304.781,179.482 321.649,129.192 271.220 C 69.393 211.256,106.277 109.147,190.800 100.668 C 194.785 100.269,207.520 100.461,212.002 100.988 M193.800 106.239 C 193.140 106.333,190.299 106.690,187.488 107.030 C 131.240 113.848,93.445 171.404,109.220 226.222 C 129.326 296.096,217.334 318.144,267.800 265.950 C 318.311 213.709,293.222 126.515,222.600 108.860 C 214.595 106.859,199.230 105.460,193.800 106.239 M33.316 159.120 C 31.609 160.205,31.600 160.414,31.600 199.979 C 31.600 246.046,30.651 241.280,39.839 241.363 C 47.600 241.434,46.932 245.390,46.833 199.931 C 46.751 162.504,46.672 160.397,45.315 159.368 C 44.525 158.768,34.205 158.555,33.316 159.120 M53.370 159.456 C 50.630 160.844,50.773 158.476,50.893 200.271 C 51.014 242.920,50.732 239.501,54.238 240.762 C 57.098 241.790,76.614 241.430,78.235 240.320 C 80.752 238.595,80.590 241.184,80.708 200.756 C 80.825 160.660,80.865 161.468,78.671 159.838 C 77.139 158.700,55.507 158.373,53.370 159.456 M323.400 159.579 C 322.960 159.760,322.060 160.514,321.400 161.254 L 320.200 162.600 320.094 200.229 L 319.988 237.857 321.243 239.326 C 323.179 241.593,324.371 241.783,335.953 241.668 C 346.012 241.568,348.800 241.216,348.800 240.049 C 348.800 239.833,349.115 239.342,349.500 238.957 C 350.157 238.300,350.200 235.922,350.200 200.419 L 350.200 162.581 349.300 161.615 C 348.805 161.084,348.400 160.539,348.400 160.405 C 348.400 159.300,325.889 158.557,323.400 159.579 M355.040 161.040 L 354.000 162.901 354.000 200.438 C 354.000 241.191,353.900 239.123,355.985 241.327 C 357.110 242.516,368.400 241.509,368.400 240.219 C 368.400 239.915,368.625 239.592,368.900 239.500 C 369.294 239.369,369.423 231.246,369.508 201.060 L 369.616 162.786 368.675 161.093 L 367.733 159.400 361.907 159.290 L 356.080 159.179 355.040 161.040 M309.983 256.938 C 308.024 258.129,258.056 308.200,257.583 309.446 C 257.018 310.930,257.118 313.884,257.773 315.120 C 258.634 316.743,271.996 329.802,273.561 330.550 C 277.603 332.480,276.951 333.017,306.173 303.701 L 331.746 278.046 331.906 275.723 C 332.136 272.384,332.093 272.320,324.198 264.387 C 315.310 255.455,313.757 254.642,309.983 256.938 M82.354 257.351 C 80.934 258.092,68.754 270.282,67.421 272.297 C 64.537 276.655,63.550 275.399,92.878 304.690 C 121.329 333.105,119.780 331.718,122.832 331.511 C 125.488 331.330,124.849 331.820,133.161 323.600 C 141.776 315.080,142.819 313.224,140.829 309.951 C 139.800 308.260,89.702 258.087,88.320 257.365 C 86.948 256.648,83.716 256.640,82.354 257.351 M335.600 279.720 C 335.050 279.976,322.677 292.085,308.105 306.628 C 280.768 333.912,280.400 334.319,280.400 337.300 C 280.400 338.178,286.665 344.800,287.496 344.800 C 287.773 344.800,288.000 344.980,288.000 345.200 C 288.000 345.902,289.443 345.631,291.337 344.573 C 294.322 342.905,345.329 291.632,345.987 289.639 C 346.855 287.008,346.614 286.559,341.931 282.100 C 338.716 279.039,337.801 278.695,335.600 279.720 M55.817 283.394 C 49.661 289.460,46.971 285.529,79.684 318.274 C 112.179 350.800,108.545 348.266,114.362 342.459 C 118.359 338.470,119.001 336.715,117.300 334.417 C 116.210 332.944,65.095 281.865,63.760 280.914 C 60.907 278.883,60.157 279.117,55.817 283.394 M160.538 319.780 C 159.844 320.082,159.157 320.704,159.012 321.162 C 158.867 321.620,158.470 322.273,158.131 322.612 C 157.301 323.442,157.082 344.426,157.900 344.700 C 158.175 344.791,158.400 345.139,158.400 345.472 C 158.400 346.473,159.669 348.303,160.685 348.766 C 163.275 349.946,238.400 349.241,238.400 348.036 C 238.400 347.879,238.805 347.316,239.300 346.785 C 240.190 345.829,240.200 345.688,240.200 334.409 C 240.200 321.621,239.994 320.634,237.120 319.632 C 235.094 318.926,162.177 319.067,160.538 319.780 M160.249 353.610 C 157.120 354.556,156.095 364.033,158.808 366.936 L 159.989 368.200 198.095 368.319 C 238.342 368.444,238.570 368.435,239.829 366.637 C 240.975 365.001,240.620 355.546,239.368 354.370 L 238.336 353.400 199.868 353.331 C 178.711 353.294,160.882 353.419,160.249 353.610 " stroke="none" fill="#43230b" fill-rule="evenodd"></path><path id="path1" d="M190.600 101.060 C 120.270 108.667,79.585 182.199,110.847 245.200 C 140.898 305.759,223.039 318.987,270.663 270.937 C 324.805 216.309,299.725 123.726,225.439 103.999 C 215.961 101.482,199.518 100.095,190.600 101.060 M208.200 106.027 C 274.435 111.802,314.408 182.682,284.994 242.200 C 250.664 311.665,152.030 312.908,116.018 244.330 C 81.423 178.450,134.006 99.558,208.200 106.027 " stroke="none" fill="#f7f6f5" fill-rule="evenodd"></path><path id="path2" d="M206.500 100.676 C 206.885 100.776,207.515 100.776,207.900 100.676 C 208.285 100.575,207.970 100.493,207.200 100.493 C 206.430 100.493,206.115 100.575,206.500 100.676 M192.705 106.283 C 193.202 106.379,193.922 106.375,194.305 106.275 C 194.687 106.175,194.280 106.096,193.400 106.101 C 192.520 106.105,192.207 106.187,192.705 106.283 M205.905 106.283 C 206.402 106.379,207.122 106.375,207.505 106.275 C 207.887 106.175,207.480 106.096,206.600 106.101 C 205.720 106.105,205.407 106.187,205.905 106.283 M188.900 106.676 C 189.285 106.776,189.915 106.776,190.300 106.676 C 190.685 106.575,190.370 106.493,189.600 106.493 C 188.830 106.493,188.515 106.575,188.900 106.676 M209.700 106.676 C 210.085 106.776,210.715 106.776,211.100 106.676 C 211.485 106.575,211.170 106.493,210.400 106.493 C 209.630 106.493,209.315 106.575,209.700 106.676 M266.600 133.600 C 267.683 134.700,268.660 135.600,268.770 135.600 C 268.880 135.600,268.083 134.700,267.000 133.600 C 265.917 132.500,264.940 131.600,264.830 131.600 C 264.720 131.600,265.517 132.500,266.600 133.600 M124.575 134.500 L 123.400 135.800 124.700 134.625 C 125.912 133.530,126.184 133.200,125.875 133.200 C 125.806 133.200,125.221 133.785,124.575 134.500 M300.153 200.600 C 300.153 203.240,300.218 204.268,300.297 202.884 C 300.375 201.501,300.374 199.341,300.295 198.084 C 300.216 196.828,300.152 197.960,300.153 200.600 M99.731 200.600 C 99.733 202.140,99.805 202.721,99.892 201.891 C 99.979 201.061,99.977 199.801,99.889 199.091 C 99.800 198.381,99.729 199.060,99.731 200.600 M133.000 267.200 C 134.971 269.180,136.673 270.800,136.783 270.800 C 136.893 270.800,135.371 269.180,133.400 267.200 C 131.429 265.220,129.727 263.600,129.617 263.600 C 129.507 263.600,131.029 265.220,133.000 267.200 M266.592 267.300 L 263.000 271.000 266.700 267.408 C 270.136 264.072,270.582 263.600,270.292 263.600 C 270.232 263.600,268.567 265.265,266.592 267.300 M270.592 271.300 L 266.600 275.400 270.700 271.408 C 274.508 267.699,274.982 267.200,274.692 267.200 C 274.633 267.200,272.788 269.045,270.592 271.300 M129.400 271.600 C 131.150 273.360,132.671 274.800,132.781 274.800 C 132.891 274.800,131.550 273.360,129.800 271.600 C 128.050 269.840,126.529 268.400,126.419 268.400 C 126.309 268.400,127.650 269.840,129.400 271.600 M197.100 300.697 C 198.695 300.773,201.305 300.773,202.900 300.697 C 204.495 300.621,203.190 300.559,200.000 300.559 C 196.810 300.559,195.505 300.621,197.100 300.697 " stroke="none" fill="#856f5b" fill-rule="evenodd"></path><path id="path3" d="M294.531 200.600 C 294.533 202.140,294.605 202.721,294.692 201.891 C 294.779 201.061,294.777 199.801,294.689 199.091 C 294.600 198.381,294.529 199.060,294.531 200.600 " stroke="none" fill="#9c8979" fill-rule="evenodd"></path><path id="path4" d="M197.300 100.697 C 198.785 100.774,201.215 100.774,202.700 100.697 C 204.185 100.620,202.970 100.557,200.000 100.557 C 197.030 100.557,195.815 100.620,197.300 100.697 M190.100 101.076 C 190.485 101.176,191.115 101.176,191.500 101.076 C 191.885 100.975,191.570 100.893,190.800 100.893 C 190.030 100.893,189.715 100.975,190.100 101.076 M208.500 101.076 C 208.885 101.176,209.515 101.176,209.900 101.076 C 210.285 100.975,209.970 100.893,209.200 100.893 C 208.430 100.893,208.115 100.975,208.500 101.076 M197.300 105.897 C 198.785 105.974,201.215 105.974,202.700 105.897 C 204.185 105.820,202.970 105.757,200.000 105.757 C 197.030 105.757,195.815 105.820,197.300 105.897 M270.200 129.600 C 271.950 131.360,273.471 132.800,273.581 132.800 C 273.691 132.800,272.350 131.360,270.600 129.600 C 268.850 127.840,267.329 126.400,267.219 126.400 C 267.109 126.400,268.450 127.840,270.200 129.600 M129.200 129.800 C 127.561 131.450,126.310 132.800,126.420 132.800 C 126.530 132.800,127.961 131.450,129.600 129.800 C 131.239 128.150,132.490 126.800,132.380 126.800 C 132.270 126.800,130.839 128.150,129.200 129.800 M136.575 130.100 L 135.400 131.400 136.700 130.225 C 137.912 129.130,138.184 128.800,137.875 128.800 C 137.806 128.800,137.221 129.385,136.575 130.100 M262.000 128.925 C 262.000 128.994,262.585 129.579,263.300 130.225 L 264.600 131.400 263.425 130.100 C 262.330 128.888,262.000 128.616,262.000 128.925 M129.381 137.300 L 127.800 139.000 129.500 137.419 C 131.081 135.948,131.384 135.600,131.081 135.600 C 131.016 135.600,130.251 136.365,129.381 137.300 M294.520 196.000 C 294.520 197.210,294.595 197.705,294.687 197.100 C 294.778 196.495,294.778 195.505,294.687 194.900 C 294.595 194.295,294.520 194.790,294.520 196.000 M299.714 195.800 C 299.717 196.900,299.795 197.303,299.887 196.695 C 299.979 196.086,299.977 195.186,299.882 194.695 C 299.787 194.203,299.711 194.700,299.714 195.800 M100.128 196.800 C 100.128 198.230,100.201 198.815,100.289 198.100 C 100.378 197.385,100.378 196.215,100.289 195.500 C 100.201 194.785,100.128 195.370,100.128 196.800 M105.320 196.400 C 105.320 197.610,105.395 198.105,105.487 197.500 C 105.578 196.895,105.578 195.905,105.487 195.300 C 105.395 194.695,105.320 195.190,105.320 196.400 M100.128 204.000 C 100.128 205.430,100.201 206.015,100.289 205.300 C 100.378 204.585,100.378 203.415,100.289 202.700 C 100.201 201.985,100.128 202.570,100.128 204.000 M105.324 204.600 C 105.326 205.920,105.401 206.412,105.490 205.693 C 105.579 204.974,105.577 203.894,105.486 203.293 C 105.395 202.692,105.322 203.280,105.324 204.600 M294.514 205.000 C 294.517 206.100,294.595 206.503,294.687 205.895 C 294.779 205.286,294.777 204.386,294.682 203.895 C 294.587 203.403,294.511 203.900,294.514 205.000 M299.714 205.000 C 299.717 206.100,299.795 206.503,299.887 205.895 C 299.979 205.286,299.977 204.386,299.882 203.895 C 299.787 203.403,299.711 203.900,299.714 205.000 M100.493 210.400 C 100.493 211.170,100.575 211.485,100.676 211.100 C 100.776 210.715,100.776 210.085,100.676 209.700 C 100.575 209.315,100.493 209.630,100.493 210.400 M266.800 267.400 C 265.161 269.050,263.910 270.400,264.020 270.400 C 264.130 270.400,265.561 269.050,267.200 267.400 C 268.839 265.750,270.090 264.400,269.980 264.400 C 269.870 264.400,268.439 265.750,266.800 267.400 M126.600 268.400 C 127.683 269.500,128.660 270.400,128.770 270.400 C 128.880 270.400,128.083 269.500,127.000 268.400 C 125.917 267.300,124.940 266.400,124.830 266.400 C 124.720 266.400,125.517 267.300,126.600 268.400 M131.600 273.400 C 132.795 274.610,133.863 275.600,133.973 275.600 C 134.083 275.600,133.195 274.610,132.000 273.400 C 130.805 272.190,129.737 271.200,129.627 271.200 C 129.517 271.200,130.405 272.190,131.600 273.400 M193.700 295.087 C 194.305 295.178,195.295 295.178,195.900 295.087 C 196.505 294.995,196.010 294.920,194.800 294.920 C 193.590 294.920,193.095 294.995,193.700 295.087 M203.500 295.089 C 204.215 295.178,205.385 295.178,206.100 295.089 C 206.815 295.001,206.230 294.928,204.800 294.928 C 203.370 294.928,202.785 295.001,203.500 295.089 M194.105 300.287 C 194.714 300.379,195.614 300.377,196.105 300.282 C 196.597 300.187,196.100 300.111,195.000 300.114 C 193.900 300.117,193.497 300.195,194.105 300.287 M204.105 300.287 C 204.714 300.379,205.614 300.377,206.105 300.282 C 206.597 300.187,206.100 300.111,205.000 300.114 C 203.900 300.117,203.497 300.195,204.105 300.287 " stroke="none" fill="#a49484" fill-rule="evenodd"></path></g></svg>